<svg xmlns="http://www.w3.org/2000/svg" width="17" height="16" viewBox="0 0 17 16" fill="none">
    <path d="M4.32757 6.4442C5.08474 6.4442 5.81089 6.14341 6.34629 5.60801C6.88169 5.07261 7.18248 4.34645 7.18248 3.58928C7.18248 2.83212 6.88169 2.10596 6.34629 1.57056C5.81089 1.03516 5.08474 0.734375 4.32757 0.734375C3.5704 0.734375 2.84424 1.03516 2.30884 1.57056C1.77344 2.10596 1.47266 2.83212 1.47266 3.58928C1.47266 4.34645 1.77344 5.07261 2.30884 5.60801C2.84424 6.14341 3.5704 6.4442 4.32757 6.4442Z" stroke="#666F8D" stroke-width="1.4" stroke-linecap="round" stroke-linejoin="round"/>
    <path d="M12.8826 6.44422C13.6397 6.44422 14.3659 6.14343 14.9013 5.60803C15.4367 5.07263 15.7375 4.34647 15.7375 3.58931C15.7375 2.83214 15.4367 2.10598 14.9013 1.57058C14.3659 1.03518 13.6397 0.734395 12.8826 0.734395C12.1254 0.734395 11.3992 1.03518 10.8638 1.57058C10.3284 2.10598 10.0276 2.83214 10.0276 3.58931C10.0276 4.34647 10.3284 5.07263 10.8638 5.60803C11.3992 6.14343 12.1254 6.44422 12.8826 6.44422Z" stroke="#666F8D" stroke-width="1.4" stroke-linecap="round" stroke-linejoin="round"/>
    <path d="M4.32757 14.9834C4.70248 14.9834 5.07372 14.9096 5.42009 14.7661C5.76647 14.6226 6.08119 14.4123 6.34629 14.1472C6.6114 13.8821 6.82169 13.5674 6.96516 13.221C7.10863 12.8747 7.18248 12.5034 7.18248 12.1285C7.18248 11.7536 7.10863 11.3823 6.96516 11.036C6.82169 10.6896 6.6114 10.3749 6.34629 10.1098C6.08119 9.84467 5.76647 9.63438 5.42009 9.4909C5.07372 9.34743 4.70248 9.27359 4.32757 9.27359C3.5704 9.27359 2.84424 9.57437 2.30884 10.1098C1.77344 10.6452 1.47266 11.3713 1.47266 12.1285C1.47266 12.8857 1.77344 13.6118 2.30884 14.1472C2.84424 14.6826 3.5704 14.9834 4.32757 14.9834Z" stroke="#666F8D" stroke-width="1.4" stroke-linecap="round" stroke-linejoin="round"/>
    <path d="M12.8826 14.9834C13.2575 14.9834 13.6287 14.9096 13.9751 14.7661C14.3215 14.6226 14.6362 14.4123 14.9013 14.1472C15.1664 13.8821 15.3767 13.5674 15.5201 13.221C15.6636 12.8747 15.7375 12.5034 15.7375 12.1285C15.7375 11.7536 15.6636 11.3823 15.5201 11.036C15.3767 10.6896 15.1664 10.3749 14.9013 10.1098C14.6362 9.84467 14.3215 9.63438 13.9751 9.4909C13.6287 9.34743 13.2575 9.27359 12.8826 9.27359C12.1254 9.27359 11.3992 9.57437 10.8638 10.1098C10.3284 10.6452 10.0276 11.3713 10.0276 12.1285C10.0276 12.8857 10.3284 13.6118 10.8638 14.1472C11.3992 14.6826 12.1254 14.9834 12.8826 14.9834Z" stroke="#666F8D" stroke-width="1.4" stroke-linecap="round" stroke-linejoin="round"/>
</svg>