<svg xmlns="http://www.w3.org/2000/svg" width="17" height="17" viewBox="0 0 17 17" fill="none">
    <path d="M8.61719 9.06084C8.64367 9.06063 8.66985 9.0552 8.69424 9.04487C8.71863 9.03454 8.74074 9.01951 8.75932 9.00064C8.7779 8.98176 8.79258 8.95941 8.80252 8.93486C8.81246 8.91032 8.81747 8.88405 8.81726 8.85757C8.81747 8.83108 8.81246 8.80482 8.80252 8.78027C8.79258 8.75572 8.7779 8.73337 8.75932 8.71449C8.74074 8.69562 8.71863 8.68059 8.69424 8.67026C8.66985 8.65993 8.64367 8.65451 8.61719 8.6543" stroke="#19213D" stroke-width="1.3" stroke-linecap="round" stroke-linejoin="round"/>
    <path d="M5.16797 9.05443C5.19403 9.05422 5.2198 9.04888 5.2438 9.03871C5.2678 9.02855 5.28956 9.01375 5.30784 8.99517C5.32612 8.9766 5.34056 8.9546 5.35034 8.93044C5.36012 8.90628 5.36505 8.88043 5.36484 8.85436C5.36505 8.8283 5.36012 8.80245 5.35034 8.77829C5.34056 8.75413 5.32612 8.73213 5.30784 8.71356C5.28956 8.69498 5.2678 8.68018 5.2438 8.67001C5.2198 8.65985 5.19403 8.65451 5.16797 8.6543" stroke="#19213D" stroke-width="1.3" stroke-linecap="round" stroke-linejoin="round"/>
    <path d="M12.0586 9.05443C12.0847 9.05422 12.1104 9.04888 12.1344 9.03871C12.1584 9.02855 12.1802 9.01375 12.1985 8.99517C12.2167 8.9766 12.2312 8.9546 12.241 8.93044C12.2507 8.90628 12.2557 8.88043 12.2555 8.85436C12.2557 8.8283 12.2507 8.80245 12.241 8.77829C12.2312 8.75413 12.2167 8.73213 12.1985 8.71356C12.1802 8.69498 12.1584 8.68018 12.1344 8.67001C12.1104 8.65985 12.0847 8.65451 12.0586 8.6543" stroke="#19213D" stroke-width="1.3" stroke-linecap="round" stroke-linejoin="round"/>
    <path d="M8.61288 1.65625C7.30311 1.65669 6.01817 2.01373 4.89593 2.68905C3.77368 3.36437 2.85648 4.33249 2.24271 5.48955C1.63097 6.64631 1.34712 7.9483 1.42188 9.25472C1.49664 10.5611 1.92715 11.8222 2.66686 12.9017L1.41043 16.0611L4.77157 14.928C5.71619 15.5205 6.78535 15.8859 7.89503 15.9955C9.00471 16.1051 10.1247 15.9559 11.167 15.5596C12.2093 15.1633 13.1455 14.5308 13.902 13.7116C14.6586 12.8924 15.2149 11.909 15.5272 10.8386C15.837 9.7684 15.8933 8.64079 15.6916 7.54509C15.4899 6.44939 15.0358 5.41573 14.3652 4.52602C13.6943 3.63468 12.8254 2.91146 11.8272 2.41343C10.8289 1.9154 9.7285 1.65619 8.61288 1.65625Z" stroke="#19213D" stroke-width="1.4" stroke-linecap="round" stroke-linejoin="round"/>
</svg>