<svg xmlns="http://www.w3.org/2000/svg" width="12" height="11" viewBox="0 0 12 11" fill="none">
    <path d="M9.22135 6.91666C9.52956 6.91666 9.83085 7.00805 10.0871 7.17928C10.3434 7.35052 10.5431 7.59389 10.6611 7.87864C10.779 8.16339 10.8099 8.47672 10.7497 8.77901C10.6896 9.08129 10.5412 9.35896 10.3233 9.5769C10.1053 9.79484 9.82766 9.94325 9.52537 10.0034C9.22308 10.0635 8.90975 10.0326 8.62501 9.9147C8.34026 9.79676 8.09688 9.59702 7.92565 9.34075C7.75442 9.08449 7.66302 8.7832 7.66302 8.47499V2.2429C7.66302 1.9347 7.75442 1.63341 7.92565 1.37714C8.09688 1.12087 8.34026 0.921139 8.62501 0.803192C8.90975 0.685246 9.22308 0.654385 9.52537 0.714514C9.82766 0.774643 10.1053 0.923059 10.3233 1.141C10.5412 1.35893 10.6896 1.6366 10.7497 1.93889C10.8099 2.24118 10.779 2.5545 10.6611 2.83925C10.5431 3.124 10.3434 3.36738 10.0871 3.53861C9.83085 3.70984 9.52956 3.80124 9.22135 3.80124H2.98802C2.67981 3.80124 2.37852 3.70984 2.12226 3.53861C1.86599 3.36738 1.66626 3.124 1.54831 2.83925C1.43036 2.5545 1.3995 2.24118 1.45963 1.93889C1.51976 1.6366 1.66818 1.35893 1.88611 1.141C2.10405 0.923059 2.38172 0.774643 2.68401 0.714514C2.98629 0.654385 3.29962 0.685246 3.58437 0.803192C3.86912 0.921139 4.1125 1.12087 4.28373 1.37714C4.45496 1.63341 4.54635 1.9347 4.54635 2.2429V8.47624C4.54635 8.78445 4.45496 9.08573 4.28373 9.342C4.1125 9.59827 3.86912 9.798 3.58437 9.91595C3.29962 10.0339 2.98629 10.0648 2.68401 10.0046C2.38172 9.9445 2.10405 9.79608 1.88611 9.57815C1.66818 9.36021 1.51976 9.08254 1.45963 8.78025C1.3995 8.47797 1.43036 8.16464 1.54831 7.87989C1.66626 7.59514 1.86599 7.35176 2.12226 7.18053C2.37852 7.0093 2.67981 6.9179 2.98802 6.9179L9.22135 6.91666Z" stroke="#19213D" stroke-width="1.2" stroke-linecap="round" stroke-linejoin="round"/>
</svg>