<svg width="16" height="17" viewBox="0 0 16 17" fill="none" xmlns="http://www.w3.org/2000/svg">
    <path d="M5.58713 2.94018L6.08163 1.66766C6.16555 1.45302 6.31253 1.26883 6.5032 1.13937C6.69387 1.0099 6.91928 0.941228 7.14975 0.942398H8.07611C8.30574 0.942226 8.53007 1.01136 8.71976 1.14077C8.90945 1.27017 9.05567 1.45381 9.13929 1.66766L9.63379 2.94018L11.2821 3.89621L12.6338 3.69182C12.8598 3.65846 13.0906 3.69373 13.2963 3.79307C13.502 3.8924 13.6732 4.05122 13.7876 4.24896L14.2524 5.05334C14.3668 5.25215 14.4188 5.4808 14.4014 5.70953C14.3841 5.93826 14.2983 6.15647 14.1552 6.33575L13.303 7.40387V9.31594L14.1552 10.3841C14.2983 10.5633 14.3841 10.7815 14.4014 11.0103C14.4188 11.239 14.3668 11.4677 14.2524 11.6665L13.7876 12.4708C13.6732 12.6686 13.502 12.8274 13.2963 12.9267C13.0906 13.0261 12.8598 13.0613 12.6338 13.028L11.2821 12.8236L9.63379 13.7796L9.13929 15.0521C9.05567 15.266 8.90945 15.4496 8.71976 15.579C8.53007 15.7084 8.30574 15.7776 8.07611 15.7774H7.14975C6.92012 15.7776 6.69579 15.7084 6.5061 15.579C6.31641 15.4496 6.17019 15.266 6.08657 15.0521L5.59207 13.7796L3.94374 12.8236L2.5921 13.028C2.3661 13.0613 2.13529 13.0261 1.92957 12.9267C1.72384 12.8274 1.55269 12.6686 1.43827 12.4708L0.956956 11.6665C0.842532 11.4677 0.790613 11.239 0.807959 11.0103C0.825304 10.7815 0.911111 10.5633 1.05421 10.3841L1.9064 9.31594V7.40387L1.05421 6.33575C0.911111 6.15647 0.825304 5.93826 0.807959 5.70953C0.790613 5.4808 0.842532 5.25215 0.956956 5.05334L1.42179 4.24896C1.5362 4.05122 1.70736 3.8924 1.91308 3.79307C2.11881 3.69373 2.34962 3.65846 2.57562 3.69182L3.92725 3.89621L5.58713 2.94018ZM5.55251 8.3599C5.55251 8.90636 5.76959 9.43043 6.15599 9.81684C6.5424 10.2032 7.06647 10.4203 7.61293 10.4203C8.15939 10.4203 8.68346 10.2032 9.06987 9.81684C9.45627 9.43043 9.67335 8.90636 9.67335 8.3599C9.67335 7.81344 9.45627 7.28937 9.06987 6.90297C8.68346 6.51656 8.15939 6.29948 7.61293 6.29948C7.06647 6.29948 6.5424 6.51656 6.15599 6.90297C5.76959 7.28937 5.55251 7.81344 5.55251 8.3599Z" stroke="#666F8D" stroke-width="1.3" stroke-linecap="round"/>
</svg>
